<svg id="Layer_1" data-name="Layer 1" xmlns="http://www.w3.org/2000/svg" viewBox="0 0 1000 1000"><defs><style>.cls-1{fill:#0070f3;}</style></defs><path class="cls-1" d="M860,474.17a20.94,20.94,0,0,1,0,37.46l-47.41,23.68h0L617.21,632.93c-16.23,8.1-34.39-6.85-29.54-24.33l12.25-44.16a20.93,20.93,0,0,1,10.82-13.13l79.42-39.68a20.94,20.94,0,0,0,0-37.46L586.7,422.47a20.93,20.93,0,0,0-29.53,13.13L504.53,625.38l-13.87,50a20.94,20.94,0,0,1-29.54,13.13l-46.42-23.2-228-113.9-47.46-23.71a20.94,20.94,0,0,1,0-37.46l47.41-23.68h0L382.05,369c16.22-8.1,34.38,6.85,29.53,24.33l-12.25,44.16a20.93,20.93,0,0,1-10.82,13.13L309.1,490.26a20.94,20.94,0,0,0,0,37.46l103.52,51.72a20.93,20.93,0,0,0,29.53-13.13l52.62-189.77,13.87-50a20.94,20.94,0,0,1,29.54-13.14l46.37,23.18.07.05L812.54,450.46Z"/><path class="cls-1" d="M470.48,695.75A26,26,0,0,1,458.89,693L412.47,669.8,137,532.19a25.93,25.93,0,0,1,0-46.4l242.79-121.3a25.94,25.94,0,0,1,36.59,30.14l-12.25,44.16a26,26,0,0,1-13.4,16.27l-79.42,39.67a15.95,15.95,0,0,0,0,28.52L414.85,575a15.93,15.93,0,0,0,22.48-10l66.49-239.79a25.93,25.93,0,0,1,36.59-16.27l46.72,23.36L862.23,469.7a25.93,25.93,0,0,1,0,46.4L619.44,637.4a25.94,25.94,0,0,1-36.59-30.14L595.1,563.1a26,26,0,0,1,13.4-16.27l79.42-39.67a15.94,15.94,0,0,0,0-28.52l-103.45-51.7a15.94,15.94,0,0,0-22.48,10L509.34,626.72l-13.86,50a26,26,0,0,1-25,19ZM187.84,471.58l-46.35,23.15a15.94,15.94,0,0,0,0,28.52L463.36,684.06a15.93,15.93,0,0,0,22.48-10l13.87-50,52.64-189.77A25.94,25.94,0,0,1,588.94,418l103.45,51.69a25.94,25.94,0,0,1,0,46.41L613,555.78a15.94,15.94,0,0,0-8.23,10l-12.25,44.16A15.93,15.93,0,0,0,615,628.45l196.42-98.14h0l46.35-23.15a15.94,15.94,0,0,0,0-28.52L535.94,317.85a16,16,0,0,0-22.49,10L447,567.64a26,26,0,0,1-36.59,16.28L306.86,532.19a25.94,25.94,0,0,1,0-46.4l79.42-39.68a15.94,15.94,0,0,0,8.23-10L406.76,392a15.93,15.93,0,0,0-22.48-18.51L187.86,471.58Z"/></svg>